<?xml version="1.0" encoding="utf-8"?>
<!-- Generator: Adobe Illustrator 15.0.2, SVG Export Plug-In . SVG Version: 6.00 Build 0)  -->
<!DOCTYPE svg PUBLIC "-//W3C//DTD SVG 1.1//EN" "http://www.w3.org/Graphics/SVG/1.1/DTD/svg11.dtd">
<svg version="1.1" id="Layer_1" xmlns="http://www.w3.org/2000/svg" xmlns:xlink="http://www.w3.org/1999/xlink" x="0px" y="0px"
	 width="320.023px" height="354.466px" viewBox="0 0 320.023 354.466" enable-background="new 0 0 320.023 354.466"
	 xml:space="preserve">
<path fill="none" stroke="#606E9F" stroke-width="1.8112" d="M220.146,22.907"/>
<g>
	<path fill="#2C479E" d="M148.097,256.438c-7.77,0-76.206-2.039-86.23-72.729c-0.025-0.152-2.263-14.474,2.193-32.901
		c4.108-16.99,14.914-41.053,43.062-59.209l2.142-1.381l-35.237,6.607l114.54-78.366l-6.679,58.619
		c-5.648,0.698-68.683,9.52-80.725,55.069c-0.186,0.517-19.386,55.97,20.489,81.372c0.14,0.095,15.481,10.348,38.572,10.348
		c13.184,0,26.367-3.289,39.182-9.776c0.329-0.211,27.096-17.855,35.941-40.819c-0.764,7.167-3.294,22.871-11.489,38.6
		c-10.189,19.553-31.49,43.155-75.104,44.562C148.75,256.432,148.523,256.438,148.097,256.438z"/>
	<path fill="#2C479E" d="M187.946,19.488l-6.511,57.141c-3.605,0.463-18.849,2.719-35.101,9.472
		c-24.618,10.229-40.4,26.092-45.646,45.88c-0.301,0.869-4.973,14.619-4.906,31.153c0.091,22.627,8.943,40.195,25.574,50.789
		c0.627,0.426,15.621,10.442,38.866,10.442c13.263,0,26.522-3.308,39.408-9.83l0.049-0.025l0.046-0.029
		c1.109-0.723,24.768-16.323,34.676-37.684c-1.153,8.052-4.007,21.457-11.004,34.872c-6.449,12.364-15.11,22.326-25.743,29.607
		c-13.298,9.106-29.756,14.037-48.914,14.655c-0.008,0.001-0.23,0.007-0.644,0.007c-7.726,0-75.77-2.029-85.738-72.319
		c-0.023-0.142-2.245-14.397,2.197-32.735c4.091-16.888,14.844-40.81,42.837-58.866l4.283-2.763l-5.009,0.939l-30.396,5.7
		L187.946,19.488 M189.188,17.427L71.783,97.753l35.068-6.576c-54.794,35.342-45.479,92.602-45.479,92.602
		c10.098,71.205,79.168,73.159,86.726,73.159c0.439,0,0.672-0.007,0.672-0.007c84.932-2.74,87.397-87.672,87.397-87.672
		c-7.123,24.932-36.986,44.383-36.986,44.383c-14.379,7.279-27.631,9.723-38.957,9.723c-23.204,0-38.303-10.27-38.303-10.27
		c-40-25.48-20.274-80.822-20.274-80.822c12.603-47.671,80.694-54.747,80.694-54.747L189.188,17.427L189.188,17.427z"/>
</g>
<g>
	<path fill="#FFFFFF" d="M147.7,256.573c7.327-1.313,65.379-13.003,80.726-55.263c0.814-2.302,19.413-56.422-20.632-81.979
		c-1.062-0.84-15.352-11.783-38.32-11.783c-12.25,0-24.714,3.165-37.046,9.408c-0.265,0.126-25.633,12.521-34.456,37.96
		c0.978-12.481,5.067-35.624,21.354-53.283c14.238-15.438,34.783-23.621,61.063-24.324c0.011,0,0.232-0.006,0.646-0.006
		c7.726,0,75.77,2.029,85.735,72.299c0.026,0.161,2.248,14.418-2.194,32.756c-4.091,16.888-14.844,40.81-42.837,58.865l-4.283,2.763
		l35.405-6.639l-111.675,76.406L147.7,256.573z"/>
	<path fill="#2C479E" d="M181.034,78.304c7.637,0,74.897,2.005,84.752,71.479c0.022,0.139,2.213,14.127-2.162,32.258
		c-2.57,10.65-6.874,20.59-12.79,29.542c-7.402,11.2-17.374,20.891-29.638,28.801l-8.566,5.525l10.019-1.879l25.724-4.824
		l-105.945,72.486l6.182-54.261c4.458-0.818,18.055-3.678,33.233-10.438c24.238-10.796,40.672-26.475,47.529-45.359
		c0.207-0.585,5.072-14.526,4.977-31.671c-0.128-22.876-9.109-40.664-25.975-51.449c-1.395-1.092-15.876-11.966-38.899-11.966
		c-12.408,0-25.025,3.201-37.458,9.496c-0.327,0.156-8.102,3.914-16.611,11.624c-5.204,4.716-11.321,11.553-15.682,20.455
		c1.848-12.836,6.872-31.204,20.325-45.798c14.048-15.24,34.359-23.32,60.37-24.015C180.434,78.31,180.646,78.304,181.034,78.304
		 M181.034,76.304c-0.439,0-0.672,0.007-0.672,0.007c-88.305,2.36-83.648,87.566-83.648,87.566
		c5.206-31.233,36.165-46.028,36.165-46.028c13.669-6.92,26.04-9.301,36.595-9.301c23.294,0.001,37.738,11.598,37.738,11.598
		c40,25.48,20.273,80.821,20.273,80.822c-16.293,44.867-80.694,54.746-80.694,54.746l-6.847,60.1l117.404-80.326l-35.068,6.576
		c54.794-35.342,45.479-92.603,45.479-92.603C257.661,78.258,188.592,76.304,181.034,76.304L181.034,76.304z"/>
</g>
<ellipse fill="#FFFFFF" stroke="#2C479E" stroke-width="2" stroke-miterlimit="10" cx="165.481" cy="164.738" rx="69.589" ry="61.234"/>
<path fill="#2C479E" d="M107.841,169.281c1.253,0.657,3.252,1.311,5.281,1.311c2.194,0,3.351-0.903,3.351-2.308
	c0-1.288-1.008-2.082-3.533-2.949c-3.503-1.259-5.816-3.202-5.816-6.307c0-3.599,3.033-6.318,7.973-6.318
	c2.407,0,4.127,0.458,5.38,1.053l-1.07,3.826c-0.807-0.396-2.345-0.995-4.372-0.995c-2.064,0-3.066,0.963-3.066,2.037
	c0,1.345,1.153,1.944,3.912,2.993c3.719,1.383,5.433,3.322,5.433,6.339c0,3.536-2.682,6.549-8.474,6.549
	c-2.406,0-4.778-0.657-5.969-1.318L107.841,169.281z"/>
<path fill="#2C479E" d="M135.077,174.512c-6.216,0-9.909-4.729-9.909-10.746c0-6.329,4.061-11.056,10.259-11.056
	c6.476,0,10.002,4.847,10.002,10.682c0,6.957-4.154,11.12-10.314,11.12H135.077z M135.301,170.716c3.219,0,5.065-3.031,5.065-7.17
	c0-3.803-1.785-7.042-5.065-7.042c-3.285,0-5.126,3.178-5.126,7.132c0,3.972,1.899,7.08,5.091,7.08H135.301z"/>
<polygon fill="#2C479E" points="150.159,153.038 154.907,153.038 154.907,170.15 163.291,170.15 163.291,174.174 150.159,174.174 
	"/>
<path fill="#2C479E" d="M167.667,153.364c1.749-0.326,4.037-0.473,6.415-0.473c4.031,0,6.66,0.657,8.662,2.184
	c2.195,1.641,3.569,4.271,3.569,8.036c0,4.038-1.477,6.827-3.476,8.554c-2.22,1.854-5.627,2.722-9.757,2.722
	c-2.464,0-4.254-0.154-5.413-0.322V153.364z M172.425,170.559c0.401,0.097,1.09,0.097,1.656,0.097
	c4.35,0.033,7.191-2.343,7.191-7.392c0-4.543-2.567-6.697-6.686-6.697c-1.042,0-1.76,0.092-2.161,0.186V170.559z"/>
<polygon fill="#2C479E" points="203.541,165.242 195.787,165.242 195.787,170.256 204.448,170.256 204.448,174.174 191.033,174.174 
	191.033,153.038 204.014,153.038 204.014,156.958 195.787,156.958 195.787,161.353 203.541,161.353 "/>
<polygon fill="#2C479E" points="209.297,153.038 214.053,153.038 214.053,170.15 222.428,170.15 222.428,174.174 209.297,174.174 
	"/>
</svg>
